<svg version="1.1" xmlns="http://www.w3.org/2000/svg" xmlns:xlink="http://www.w3.org/1999/xlink" width="800px" height="800px" viewBox="0,0,256,256"><g fill="none" fill-rule="nonzero" stroke="none" stroke-width="1" stroke-linecap="butt" stroke-linejoin="miter" stroke-miterlimit="10" stroke-dasharray="" stroke-dashoffset="0" font-family="none" font-weight="none" font-size="none" text-anchor="none" style="mix-blend-mode: normal"><g transform="scale(12.8,12.8)"><rect x="0" y="0" width="20" height="20" fill="none"></rect><g fill="#8257e6"><path d="M16,13c-1.3,0 -2.4,0.8 -2.8,2h-4.2c0,-0.7 -0.2,-1.3 -0.5,-1.8l7.1,-7.3c0.3,0 0.6,0.1 0.9,0.1c1.4,0 2.5,-1.1 2.5,-2.5c0,-1.4 -1.1,-2.5 -2.5,-2.5c-1.4,0 -2.5,1.1 -2.5,2.5c0,0.3 0.1,0.7 0.2,1l-7,7.2c-0.6,-0.5 -1.4,-0.7 -2.2,-0.7v-4.2c1.2,-0.4 2,-1.5 2,-2.8c0,-1.7 -1.3,-3 -3,-3c-1.7,0 -3,1.3 -3,3c0,1.3 0.8,2.4 2,2.8v4.7c-1.2,0.7 -2,2 -2,3.4c0,2.2 1.8,4 4,4c1.5,0 2.8,-0.8 3.4,-2h4.7c0.4,1.1 1.5,2 2.8,2c1.6,0 3,-1.3 3,-3c0.1,-1.6 -1.3,-2.9 -2.9,-2.9z"></path></g></g></g></svg>