<svg version="1.1" xmlns="http://www.w3.org/2000/svg" xmlns:xlink="http://www.w3.org/1999/xlink" width="128px" height="128px" viewBox="0,0,256,256"><g fill="#8257e6" fill-rule="nonzero" stroke="none" stroke-width="1" stroke-linecap="butt" stroke-linejoin="miter" stroke-miterlimit="10" stroke-dasharray="" stroke-dashoffset="0" font-family="none" font-weight="none" font-size="none" text-anchor="none" style="mix-blend-mode: normal"><g transform="translate(-0.00116,0) scale(2,2)"><path d="M36.379,53.64c0,1.56 0.168,2.825 0.465,3.75c0.336,0.926 0.758,1.938 1.347,3.032c0.207,0.336 0.293,0.672 0.293,0.969c0,0.418 -0.254,0.84 -0.8,1.261l-2.653,1.77c-0.379,0.25 -0.758,0.379 -1.093,0.379c-0.422,0 -0.844,-0.211 -1.266,-0.59c-0.56632,-0.61099 -1.07389,-1.27391 -1.516,-1.98c-0.46853,-0.81012 -0.90356,-1.63915 -1.304,-2.485c-3.282,3.875 -7.41,5.813 -12.38,5.813c-3.535,0 -6.355,-1.012 -8.421,-3.032c-2.063,-2.023 -3.114,-4.718 -3.114,-8.086c0,-3.578 1.262,-6.484 3.833,-8.671c2.566,-2.192 5.976,-3.286 10.316,-3.286c1.43,0 2.902,0.125 4.46,0.336c1.56,0.211 3.161,0.547 4.845,0.926v-3.074c0,-3.2 -0.676,-5.43 -1.98,-6.734c-1.35,-1.305 -3.623,-1.938 -6.865,-1.938c-1.473,0 -2.988,0.168 -4.547,0.547c-1.54785,0.3688 -3.06738,0.84768 -4.547,1.433c-0.676,0.293 -1.18,0.461 -1.473,0.547c-0.296,0.082 -0.507,0.125 -0.675,0.125c-0.59,0 -0.883,-0.422 -0.883,-1.304v-2.063c0,-0.676 0.082,-1.18 0.293,-1.476c0.21,-0.293 0.59,-0.586 1.18,-0.883c1.472,-0.758 3.242,-1.39 5.304,-1.895c2.063,-0.547 4.254,-0.8 6.57,-0.8c5.008,0 8.672,1.136 11.032,3.41c2.316,2.273 3.492,5.726 3.492,10.359v13.64zM19.285,60.043c1.387,0 2.82,-0.254 4.336,-0.758c1.516,-0.508 2.863,-1.433 4,-2.695c0.672,-0.8 1.18,-1.684 1.43,-2.695c0.254,-1.012 0.422,-2.23 0.422,-3.665v-1.765c-1.27555,-0.31337 -2.568,-0.55343 -3.871,-0.719c-1.31384,-0.16568 -2.63675,-0.24918 -3.961,-0.25c-2.82,0 -4.883,0.547 -6.274,1.684c-1.387,1.136 -2.062,2.734 -2.062,4.84c0,1.98 0.504,3.453 1.558,4.464c1.012,1.051 2.485,1.559 4.422,1.559zM53.094,64.59c-0.758,0 -1.262,-0.125 -1.598,-0.422c-0.34,-0.254 -0.633,-0.84 -0.887,-1.64l-9.894,-32.548c-0.25,-0.843 -0.38,-1.39 -0.38,-1.687c0,-0.672 0.337,-1.05 1.013,-1.05h4.125c0.8,0 1.347,0.124 1.644,0.421c0.336,0.25 0.59,0.84 0.84,1.64l7.074,27.876l6.57,-27.875c0.208,-0.84 0.462,-1.39 0.797,-1.64c0.34,-0.255 0.93,-0.423 1.688,-0.423h3.367c0.8,0 1.348,0.125 1.684,0.422c0.336,0.25 0.633,0.84 0.8,1.64l6.653,28.212l7.285,-28.211c0.25,-0.84 0.547,-1.39 0.84,-1.64c0.336,-0.255 0.887,-0.423 1.644,-0.423h3.914c0.676,0 1.055,0.336 1.055,1.051c0,0.21 -0.043,0.422 -0.086,0.676c-0.043,0.254 -0.125,0.59 -0.293,1.05l-10.148,32.551c-0.254,0.84 -0.547,1.387 -0.887,1.64c-0.336,0.255 -0.883,0.423 -1.598,0.423h-3.62c-0.801,0 -1.348,-0.13 -1.684,-0.422c-0.34,-0.297 -0.633,-0.844 -0.801,-1.684l-6.527,-27.16l-6.485,27.117c-0.21,0.844 -0.46,1.391 -0.8,1.684c-0.337,0.297 -0.926,0.422 -1.684,0.422zM107.199,65.727c-2.187,0 -4.379,-0.254 -6.484,-0.758c-2.106,-0.504 -3.746,-1.055 -4.84,-1.684c-0.676,-0.379 -1.137,-0.8 -1.305,-1.18c-0.16595,-0.37134 -0.25247,-0.77327 -0.254,-1.18v-2.148c0,-0.882 0.336,-1.304 0.97,-1.304c0.25,0 0.503,0.043 0.757,0.129c0.25,0.082 0.629,0.25 1.05,0.418c1.48843,0.65367 3.0417,1.14841 4.634,1.476c1.683,0.336 3.324,0.504 5.011,0.504c2.653,0 4.715,-0.465 6.145,-1.39c1.433,-0.926 2.191,-2.274 2.191,-4c0,-1.18 -0.379,-2.145 -1.136,-2.946c-0.758,-0.8 -2.192,-1.516 -4.254,-2.191l-6.106,-1.895c-3.074,-0.969 -5.348,-2.398 -6.734,-4.293c-1.39,-1.855 -2.106,-3.918 -2.106,-6.105c0,-1.77 0.38,-3.328 1.137,-4.676c0.75172,-1.35455 1.78531,-2.53205 3.031,-3.453c1.262,-0.965 2.696,-1.684 4.38,-2.188c1.683,-0.504 3.452,-0.715 5.304,-0.715c0.926,0 1.894,0.043 2.82,0.168c0.969,0.125 1.852,0.293 2.738,0.461c0.84,0.211 1.641,0.422 2.399,0.676c0.758,0.254 1.348,0.504 1.77,0.758c0.59,0.336 1.011,0.672 1.261,1.05c0.254,0.34 0.379,0.802 0.379,1.391v1.98c0,0.884 -0.336,1.348 -0.969,1.348c-0.336,0 -0.883,-0.171 -1.597,-0.507c-2.403,-1.094 -5.098,-1.641 -8.086,-1.641c-2.399,0 -4.293,0.379 -5.598,1.18c-1.309,0.797 -1.98,2.02 -1.98,3.746c0,1.18 0.421,2.191 1.261,2.988c0.844,0.8 2.403,1.602 4.633,2.316l5.98,1.895c3.032,0.969 5.22,2.316 6.524,4.043c1.305,1.727 1.938,3.707 1.938,5.895c0,1.812 -0.38,3.453 -1.094,4.882c-0.758,1.434 -1.77,2.696 -3.074,3.707c-1.305,1.051 -2.864,1.809 -4.672,2.36c-1.895,0.586 -3.875,0.883 -6.024,0.883zM107.199,65.727"></path><path d="M118,73.348c-4.432,0.063 -9.664,1.052 -13.621,3.832c-1.223,0.883 -1.012,2.062 0.336,1.894c4.508,-0.547 14.44,-1.726 16.21,0.547c1.77,2.23 -1.976,11.62 -3.663,15.79c-0.504,1.26 0.59,1.769 1.726,0.8c7.41,-6.231 9.348,-19.242 7.832,-21.137c-0.757,-0.925 -4.388,-1.79 -8.82,-1.726zM1.63,75.859c-0.927,0.116 -1.347,1.236 -0.368,2.121c16.508,14.902 38.359,23.872 62.613,23.872c17.305,0 37.43,-5.43 51.281,-15.66c2.273,-1.688 0.297,-4.254 -2.02,-3.204c-15.534,6.57 -32.421,9.77 -47.788,9.77c-22.778,0 -44.8,-6.273 -62.653,-16.633c-0.39,-0.231 -0.755,-0.304 -1.064,-0.266z"></path></g></g></svg>