<svg version="1.1" xmlns="http://www.w3.org/2000/svg" xmlns:xlink="http://www.w3.org/1999/xlink" width="800px" height="800px" viewBox="0,0,256,256"><g fill="#8257e6" fill-rule="nonzero" stroke="none" stroke-width="1" stroke-linecap="butt" stroke-linejoin="miter" stroke-miterlimit="10" stroke-dasharray="" stroke-dashoffset="0" font-family="none" font-weight="none" font-size="none" text-anchor="none" style="mix-blend-mode: normal"><g transform="translate(-0.05428,-0.09067) scale(10.66667,10.66667)"><path d="M8.49,24c-1.54,-0.68 -2.586,-2.146 -2.723,-3.824c0.09,-1.727 1.002,-3.305 2.45,-4.246c-0.238,0.58 -0.18,1.24 0.15,1.77c0.376,0.525 1.022,0.777 1.655,0.646c0.902,-0.254 1.43,-1.19 1.176,-2.092c-0.09,-0.316 -0.27,-0.602 -0.516,-0.818c-1.02,-0.83 -1.532,-2.133 -1.35,-3.436c0.175,-0.69 0.557,-1.314 1.096,-1.785c-0.405,1.08 0.737,2.146 1.504,2.67c1.36,0.816 2.67,1.713 3.924,2.686c1.37,1.08 2.117,2.77 2,4.5c-0.308,1.84 -1.61,3.36 -3.385,3.93c3.55,-0.79 7.21,-3.61 7.28,-7.61c-0.07,-3.2 -1.98,-6.072 -4.9,-7.38h-0.13c0.065,0.157 0.096,0.326 0.09,0.496c0.01,-0.11 0.01,-0.22 0,-0.33c0.016,0.13 0.016,0.26 0,0.39c-0.222,0.91 -1.14,1.47 -2.052,1.248c-0.364,-0.09 -0.69,-0.295 -0.924,-0.59c-1.17,-1.5 0,-3.207 0.196,-4.857c0.12,-2.11 -0.844,-4.127 -2.554,-5.36c0.856,1.427 -0.284,3.3 -1.113,4.366c-0.83,1.066 -2.03,1.86 -3.008,2.79c-1.054,0.98 -2.02,2.058 -2.887,3.21c-1.874,2.29 -2.61,5.31 -2,8.205c0.836,2.79 3.155,4.886 6.015,5.43h0.016z"></path></g></g></svg>