<svg version="1.1" xmlns="http://www.w3.org/2000/svg" xmlns:xlink="http://www.w3.org/1999/xlink" width="800px" height="800px" viewBox="0,0,256,256"><g fill="#8257e6" fill-rule="nonzero" stroke="none" stroke-width="1" stroke-linecap="butt" stroke-linejoin="miter" stroke-miterlimit="10" stroke-dasharray="" stroke-dashoffset="0" font-family="none" font-weight="none" font-size="none" text-anchor="none" style="mix-blend-mode: normal"><g transform="translate(-0.00091,-0.00046) scale(10.66667,10.66667)"><path d="M21.803,10.242c-0.054,-0.043 -0.561,-0.425 -1.628,-0.425c-0.28183,0.00096 -0.56311,0.02504 -0.841,0.072c-0.207,-1.417 -1.378,-2.107 -1.43,-2.138l-0.287,-0.165l-0.189,0.272c-0.23614,0.36566 -0.40859,0.7687 -0.51,1.192c-0.191,0.809 -0.075,1.568 0.336,2.218c-0.496,0.276 -1.292,0.344 -1.453,0.35h-13.175c-0.34417,0.00055 -0.62335,0.27883 -0.625,0.623c-0.01526,1.15404 0.18028,2.30118 0.577,3.385c0.454,1.19 1.129,2.067 2.007,2.603c0.984,0.603 2.584,0.947 4.396,0.947c0.819,0.003 1.636,-0.072 2.441,-0.221c1.11892,-0.20591 2.19569,-0.59694 3.186,-1.157c0.81582,-0.47235 1.54995,-1.07343 2.174,-1.78c1.044,-1.182 1.666,-2.497 2.128,-3.667h0.184c1.143,0 1.846,-0.457 2.233,-0.841c0.258,-0.244 0.459,-0.542 0.589,-0.872l0.084,-0.24z"></path><path d="M3.847,11.231h1.765c0.08505,0 0.154,-0.06895 0.154,-0.154v-1.572c0.00027,-0.04084 -0.0157,-0.08012 -0.0444,-0.10919c-0.02869,-0.02907 -0.06776,-0.04555 -0.1086,-0.04581h-1.766c-0.08505,0 -0.154,0.06895 -0.154,0.154v1.574c0,0.084 0.069,0.153 0.154,0.153M6.28,11.231h1.765c0.08505,0 0.154,-0.06895 0.154,-0.154v-1.572c0.00053,-0.04092 -0.01535,-0.08036 -0.0441,-0.10948c-0.02875,-0.02913 -0.06797,-0.04552 -0.1089,-0.04552h-1.766c-0.04119,-0.00027 -0.08077,0.01598 -0.1099,0.0451c-0.02913,0.02913 -0.04537,0.06871 -0.0451,0.1099v1.573c0.001,0.084 0.07,0.153 0.155,0.153M8.75,11.231h1.765c0.08505,0 0.154,-0.06895 0.154,-0.154v-1.572c0.00027,-0.04084 -0.0157,-0.08012 -0.0444,-0.10919c-0.02869,-0.02907 -0.06776,-0.04555 -0.1086,-0.04581h-1.766c-0.08505,0 -0.154,0.06895 -0.154,0.154v1.574c0,0.084 0.069,0.153 0.154,0.153M11.19,11.231h1.765c0.08522,0 0.15445,-0.06879 0.155,-0.154v-1.572c0.00027,-0.04119 -0.01598,-0.08077 -0.0451,-0.1099c-0.02913,-0.02913 -0.06871,-0.04537 -0.1099,-0.0451h-1.765c-0.08505,0 -0.154,0.06895 -0.154,0.154v1.574c0,0.084 0.069,0.153 0.154,0.153M6.28,8.969h1.765c0.085,0 0.154,-0.07 0.154,-0.155v-1.572c0,-0.08505 -0.06895,-0.154 -0.154,-0.154h-1.765c-0.08522,0 -0.15445,0.06879 -0.155,0.154v1.573c0.001,0.084 0.07,0.154 0.155,0.154M8.75,8.969h1.765c0.085,0 0.154,-0.07 0.154,-0.155v-1.572c0,-0.08505 -0.06895,-0.154 -0.154,-0.154h-1.765c-0.08505,0 -0.154,0.06895 -0.154,0.154v1.573c0,0.084 0.069,0.154 0.154,0.154M11.19,8.969h1.765c0.085,0 0.155,-0.07 0.155,-0.155v-1.572c-0.00055,-0.08521 -0.06978,-0.154 -0.155,-0.154h-1.765c-0.08505,0 -0.154,0.06895 -0.154,0.154v1.573c0,0.084 0.069,0.154 0.154,0.154M11.19,6.706h1.765c0.08522,0 0.15445,-0.06879 0.155,-0.154v-1.574c-0.00055,-0.08521 -0.06978,-0.154 -0.155,-0.154h-1.765c-0.08505,0 -0.154,0.06895 -0.154,0.154v1.573c0,0.086 0.069,0.155 0.154,0.155M13.653,11.231h1.765c0.08522,0 0.15445,-0.06879 0.155,-0.154v-1.572c0.00027,-0.04119 -0.01598,-0.08077 -0.0451,-0.1099c-0.02913,-0.02913 -0.06871,-0.04537 -0.1099,-0.0451h-1.765c-0.08505,0 -0.154,0.06895 -0.154,0.154v1.574c0,0.04075 0.01626,0.07982 0.04517,0.10854c0.02891,0.02872 0.06808,0.04472 0.10883,0.04446"></path></g></g></svg>