<svg version="1.1" xmlns="http://www.w3.org/2000/svg" xmlns:xlink="http://www.w3.org/1999/xlink" width="800px" height="800px" viewBox="0,0,256,256"><g fill="#8257e6" fill-rule="nonzero" stroke="none" stroke-width="1" stroke-linecap="butt" stroke-linejoin="miter" stroke-miterlimit="10" stroke-dasharray="" stroke-dashoffset="0" font-family="none" font-weight="none" font-size="none" text-anchor="none" style="mix-blend-mode: normal"><g transform="translate(0.00056,0.00056) scale(17.06667,17.06667)"><path d="M6.79286,1.20708l0.35356,0.35355v0zM1.20708,6.79287l-0.35356,-0.35356v0zM1.20708,8.20708l0.35355,-0.35356v0zM6.79287,13.7929l-0.35356,0.3535zM8.20708,13.7929l-0.35356,-0.3536zM13.7929,8.20708l0.3535,0.35355zM13.7929,6.79286l-0.3536,0.35356zM8.20708,1.20708l0.35355,-0.35356v0zM6.43931,0.85353l-5.58579,5.58579l0.70711,0.70711l5.58579,-5.58579zM0.85353,8.56063l5.58579,5.58577l0.70711,-0.7071l-5.58579,-5.58578zM8.56063,14.1464l5.58577,-5.58577l-0.7071,-0.70711l-5.58578,5.58578zM14.1464,6.43931l-5.58577,-5.58579l-0.70711,0.70711l5.58578,5.58579zM14.1464,8.56063c0.5858,-0.58579 0.5858,-1.53553 0,-2.12132l-0.7071,0.70711c0.1953,0.19526 0.1953,0.51184 0,0.7071zM6.43931,14.1464c0.58579,0.5858 1.53554,0.5858 2.12132,0l-0.70711,-0.7071c-0.19526,0.1953 -0.51184,0.1953 -0.7071,0zM0.85352,6.43931c-0.58579,0.58579 -0.58578,1.53554 0,2.12132l0.70711,-0.70711c-0.19526,-0.19526 -0.19526,-0.51184 0,-0.7071zM7.14642,1.56063c0.19526,-0.19526 0.51184,-0.19526 0.7071,0l0.70711,-0.70711c-0.58579,-0.58579 -1.53553,-0.58578 -2.12132,0zM5.14642,2.85352l1,1l0.7071,-0.7071l-1,-1zM7.49997,4.99997c-0.27614,0 -0.5,-0.22386 -0.5,-0.5h-1c0,0.82843 0.67157,1.5 1.5,1.5zM7.99997,4.49997c0,0.27614 -0.22386,0.5 -0.5,0.5v1c0.82843,0 1.5,-0.67157 1.5,-1.5zM7.49997,3.99997c0.27614,0 0.5,0.22386 0.5,0.5h1c0,-0.82843 -0.67157,-1.5 -1.5,-1.5zM7.49997,2.99997c-0.82843,0 -1.5,0.67157 -1.5,1.5h1c0,-0.27614 0.22386,-0.5 0.5,-0.5zM8.14642,5.85352l1.5,1.5l0.70708,-0.7071l-1.49998,-1.5zM10.5,7.99997c-0.2762,0 -0.50003,-0.22386 -0.50003,-0.5h-1c0,0.82843 0.67157,1.5 1.50003,1.5zM11,7.49997c0,0.27614 -0.2239,0.5 -0.5,0.5v1c0.8284,0 1.5,-0.67157 1.5,-1.5zM10.5,6.99997c0.2761,0 0.5,0.22386 0.5,0.5h1c0,-0.82843 -0.6716,-1.5 -1.5,-1.5zM10.5,5.99997c-0.82846,0 -1.50003,0.67157 -1.50003,1.5h1c0,-0.27614 0.22383,-0.5 0.50003,-0.5zM6.99997,5.49997v4h1v-4zM7.49997,11c-0.27614,0 -0.5,-0.2239 -0.5,-0.5h-1c0,0.8284 0.67157,1.5 1.5,1.5zM7.99997,10.5c0,0.2761 -0.22386,0.5 -0.5,0.5v1c0.82843,0 1.5,-0.6716 1.5,-1.5zM7.49997,9.99997c0.27614,0 0.5,0.22383 0.5,0.50003h1c0,-0.82846 -0.67157,-1.50003 -1.5,-1.50003zM7.49997,8.99997c-0.82843,0 -1.5,0.67157 -1.5,1.50003h1c0,-0.2762 0.22386,-0.50003 0.5,-0.50003z"></path></g></g></svg>