<svg version="1.1" xmlns="http://www.w3.org/2000/svg" xmlns:xlink="http://www.w3.org/1999/xlink" width="400.000000pt" height="400.000000pt" viewBox="0,0,256,256"><g fill="#8257e6" fill-rule="nonzero" stroke="none" stroke-width="1" stroke-linecap="butt" stroke-linejoin="miter" stroke-miterlimit="10" stroke-dasharray="" stroke-dashoffset="0" font-family="none" font-weight="none" font-size="none" text-anchor="none" style="mix-blend-mode: normal"><g transform="translate(0.31218,0.248) scale(0.64,0.64)"><g transform="translate(0,400) scale(0.1,-0.1)"><path d="M1735,3793c-254,-36 -555,-157 -776,-313c-133,-94 -333,-293 -426,-425c-129,-181 -237,-415 -284,-612c-68,-288 -67,-603 2,-878c160,-634 672,-1146 1304,-1304c284,-71 596,-71 880,0c632,158 1144,670 1304,1304c70,276 70,614 1,886c-46,180 -138,387 -243,546c-55,84 -62,91 -81,81c-19,-10 -1388,-798 -1393,-802c-6,-5 190,-336 198,-336c6,0 243,134 527,298c284,164 527,304 539,310c20,11 23,8 47,-61c110,-309 110,-655 1,-960c-163,-450 -548,-795 -1014,-906c-474,-113 -982,31 -1330,380c-382,381 -516,947 -346,1456c72,217 177,385 345,554c212,213 453,342 738,395c48,9 93,18 100,20c9,2 12,49 12,189v185l-37,-1c-21,-1 -51,-4 -68,-6z"></path><path d="M2639,3656c-96,-34 -149,-105 -157,-206c-7,-104 38,-182 133,-226c116,-54 247,-8 307,110c25,49 27,136 4,191c-47,110 -178,170 -287,131z"></path><path d="M1735,3051c-191,-50 -356,-142 -495,-280c-160,-159 -265,-361 -304,-590c-58,-340 61,-700 312,-943c369,-357 928,-406 1352,-118c218,148 385,395 444,658l14,62l-195,-2l-195,-3l-23,-62c-108,-299 -423,-494 -731,-453c-167,22 -289,83 -411,205c-67,68 -89,99 -127,176c-72,150 -91,281 -62,431c34,178 131,333 271,433c75,53 145,89 218,110l57,16v190v189l-27,-1c-16,0 -59,-9 -98,-18z"></path></g></g></g></svg>