<svg version="1.1" xmlns="http://www.w3.org/2000/svg" xmlns:xlink="http://www.w3.org/1999/xlink" width="800px" height="800px" viewBox="0,0,256,256"><g fill="#8257e6" fill-rule="none" stroke="none" stroke-width="1" stroke-linecap="butt" stroke-linejoin="miter" stroke-miterlimit="10" stroke-dasharray="" stroke-dashoffset="0" font-family="none" font-weight="none" font-size="none" text-anchor="none" style="mix-blend-mode: normal"><g transform="scale(17.06667,17.06667)"><path d="M4.10395,3.39722l2.46662,4.93323l-2.64493,0.88165l-1.32818,-5.31271z" fill-rule="nonzero"></path><path d="M9.27727,11.5078l-1.29663,-2.59328l3.15716,-1.0524l1.1649,1.83042z" fill-rule="nonzero"></path><path d="M12.1839,6.45935l-0.6216,0.20718l-0.5179,-0.81396l0.5763,-0.14409z" fill-rule="nonzero"></path><path d="M0,2.5c0,-1.38071 1.11929,-2.5 2.5,-2.5h10c1.3807,0 2.5,1.11929 2.5,2.5v10c0,1.3807 -1.1193,2.5 -2.5,2.5h-10c-1.38071,0 -2.5,-1.1193 -2.5,-2.5zM4.80445,2.56215c-0.11128,-0.22256 -0.36927,-0.32943 -0.60533,-0.25074l-2.35714,0.78571c-0.24786,0.08262 -0.39033,0.34215 -0.32696,0.59561l1.57143,6.28572c0.03378,0.13515 0.12238,0.25005 0.24446,0.31705c0.12209,0.067 0.2666,0.0801 0.39872,0.036l3.29269,-1.09754l1.60199,3.20394c0.06228,0.1246 0.1737,0.2175 0.30742,0.2565c0.13371,0.0389 0.27761,0.0203 0.39704,-0.0513l3.92853,-2.3572c0.1157,-0.0694 0.1984,-0.1826 0.2294,-0.31384c0.031,-0.13128 0.0076,-0.26952 -0.0648,-0.38332l-1.3062,-2.05258l1.0425,-0.3475c0.1525,-0.05082 0.2712,-0.17184 0.3191,-0.32525c0.048,-0.15341 0.0192,-0.32051 -0.0772,-0.44909l-1.1786,-1.57143c-0.1207,-0.16093 -0.3261,-0.23386 -0.5212,-0.18507l-1.5715,0.39286c-0.1559,0.03898 -0.28358,0.15054 -0.34313,0.29982c-0.05954,0.14929 -0.0437,0.3181 0.04259,0.45369l0.75624,1.1883l-3.05562,1.01852z" fill-rule="evenodd"></path></g></g></svg>