<svg version="1.1" xmlns="http://www.w3.org/2000/svg" xmlns:xlink="http://www.w3.org/1999/xlink" width="800px" height="800px" viewBox="0,0,256,256"><g fill="#8257e6" fill-rule="nonzero" stroke="none" stroke-width="1" stroke-linecap="butt" stroke-linejoin="miter" stroke-miterlimit="10" stroke-dasharray="" stroke-dashoffset="0" font-family="none" font-weight="none" font-size="none" text-anchor="none" style="mix-blend-mode: normal"><g transform="scale(8,8)"><path d="M9.349,13.609h-1.261l-0.687,3.531h1.12c0.739,0 1.291,-0.14 1.656,-0.421c0.359,-0.276 0.604,-0.745 0.729,-1.396c0.124,-0.625 0.067,-1.068 -0.161,-1.328c-0.235,-0.255 -0.699,-0.385 -1.396,-0.385zM16,7.584c-8.839,0 -16,3.771 -16,8.416c0,4.645 7.161,8.416 16,8.416c8.839,0 16,-3.771 16,-8.416c0,-4.645 -7.161,-8.416 -16,-8.416zM11.651,17.521c-0.344,0.333 -0.765,0.583 -1.219,0.733c-0.448,0.141 -1.02,0.219 -1.713,0.219h-1.579l-0.432,2.24h-1.839l1.641,-8.432h3.531c1.063,0 1.839,0.276 2.328,0.833c0.485,0.557 0.636,1.339 0.437,2.339c-0.072,0.396 -0.213,0.776 -0.405,1.131c-0.193,0.337 -0.437,0.651 -0.751,0.937zM17.021,18.473l0.724,-3.733c0.083,-0.423 0.052,-0.713 -0.095,-0.871c-0.14,-0.151 -0.448,-0.229 -0.916,-0.229h-1.453l-0.937,4.833h-1.828l1.64,-8.437h1.823l-0.437,2.245h1.625c1.027,0 1.729,0.177 2.115,0.531c0.391,0.36 0.505,0.937 0.355,1.735l-0.767,3.927zM27.145,15.453c-0.072,0.396 -0.208,0.776 -0.405,1.131c-0.188,0.337 -0.437,0.651 -0.745,0.937c-0.349,0.328 -0.765,0.583 -1.224,0.733c-0.448,0.141 -1.021,0.219 -1.713,0.219h-1.573l-0.437,2.24h-1.839l1.641,-8.432h3.531c1.063,0 1.839,0.276 2.328,0.839c0.485,0.552 0.636,1.333 0.437,2.333zM23.688,13.609h-1.256l-0.687,3.531h1.115c0.744,0 1.296,-0.14 1.656,-0.421c0.364,-0.276 0.609,-0.745 0.735,-1.396c0.124,-0.625 0.067,-1.068 -0.168,-1.328c-0.228,-0.255 -0.697,-0.385 -1.395,-0.385z"></path></g></g></svg>