<svg version="1.1" xmlns="http://www.w3.org/2000/svg" xmlns:xlink="http://www.w3.org/1999/xlink" width="128px" height="128px" viewBox="0,0,256,256"><g fill="#8257e6" fill-rule="nonzero" stroke="none" stroke-width="1" stroke-linecap="butt" stroke-linejoin="miter" stroke-miterlimit="10" stroke-dasharray="" stroke-dashoffset="0" font-family="none" font-weight="none" font-size="none" text-anchor="none" style="mix-blend-mode: normal"><g transform="translate(0,-0.02) scale(2,2)"><path d="M49.32,29.44h-1.88v9.75h1.88zM57.41,29.44h-1.88v9.75h1.88zM68.47,10.84l-1.93,-3.34l-32.18,18.6l1.93,3.34z"></path><path d="M68.28,10.84l1.93,-3.34l32.18,18.6l-1.93,3.34z"></path><path d="M108.08,29.49v-3.86h-88.16v3.86z"></path><path d="M73.17,84.01v-57.21h3.86v59.98c-1.03,-1.17 -2.35,-2.02 -3.86,-2.77zM66.59,83.02v-80.7h3.86v81.17c-1.09,-0.52 -3.72,-0.47 -3.86,-0.47zM30.04,91.07c-4.7,-3.48 -7.81,-9.04 -7.81,-15.35c0,-3.34 0.89,-6.64 2.54,-9.51h32.93c1.69,2.87 2.54,6.17 2.54,9.51c0,2.92 -0.38,5.65 -1.55,8.1c-2.49,-2.4 -6.16,-3.44 -9.88,-3.44c-6.59,0 -12.23,4.1 -13.69,10.22c-0.52,-0.05 -0.85,-0.09 -1.36,-0.09c-1.28,0.04 -2.5,0.23 -3.72,0.56z"></path><path d="M46.22,43.52h-9.97v10.03h9.97zM34.97,43.52h-9.97v10.03h9.97zM34.97,54.68h-9.97v10.03h9.97zM46.22,54.68h-9.97v10.03h9.97zM57.41,54.68h-9.97v10.03h9.97zM57.41,38.15h-9.97v10.03h9.97z"></path><path d="M36.76,92.58c1.36,-5.79 6.59,-10.12 12.8,-10.12c4,0 7.57,1.79 10.02,4.62c2.12,-1.46 4.66,-2.31 7.43,-2.31c7.24,0 13.12,5.88 13.12,13.14c0,1.51 -0.23,2.92 -0.7,4.28c1.6,2.17 2.59,4.9 2.59,7.82c0,7.25 -5.88,13.14 -13.13,13.14c-3.2,0 -6.12,-1.13 -8.37,-3.01c-2.4,3.34 -6.3,5.56 -10.73,5.56c-5.08,0 -9.5,-2.92 -11.71,-7.16c-0.89,0.19 -1.79,0.28 -2.73,0.28c-7.24,0 -13.17,-5.89 -13.17,-13.14c0,-7.25 5.88,-13.14 13.17,-13.14c0.47,-0.05 0.94,-0.05 1.41,0.04z"></path></g></g></svg>